<?xml version="1.0" standalone="no"?>
<!DOCTYPE svg PUBLIC "-//W3C//DTD SVG 20010904//EN"
 "http://www.w3.org/TR/2001/REC-SVG-20010904/DTD/svg10.dtd">
<svg version="1.0" xmlns="http://www.w3.org/2000/svg"
 width="512.000000pt" height="512.000000pt" viewBox="0 0 512.000000 512.000000"
 preserveAspectRatio="xMidYMid meet">
<metadata>
Created by potrace 1.14, written by Peter Selinger 2001-2017
</metadata>
<g transform="translate(0.000000,512.000000) scale(0.100000,-0.100000)"
fill="#000000" stroke="none">
<path d="M2379 5116 c-2 -2 -40 -6 -84 -10 -44 -3 -89 -8 -100 -10 -11 -2 -54
-9 -95 -16 -82 -13 -239 -49 -255 -58 -5 -3 -16 -7 -25 -8 -16 -3 -52 -11 -60
-14 -3 -1 -8 -2 -12 -1 -5 0 -8 -4 -8 -10 0 -5 -3 -8 -8 -5 -4 2 -30 -6 -57
-19 -28 -13 -56 -24 -62 -24 -7 -1 -13 -6 -13 -11 0 -6 -3 -9 -7 -8 -14 3 -63
-14 -63 -22 0 -4 -11 -11 -25 -14 -14 -4 -25 -11 -25 -16 0 -6 -5 -10 -11 -10
-6 0 -31 -14 -57 -32 -61 -42 -66 -46 -112 -92 -31 -31 -48 -40 -82 -43 -115
-10 -189 -39 -253 -99 -29 -28 -77 -94 -68 -94 4 0 3 -4 -4 -8 -17 -11 -41
-124 -37 -177 1 -25 2 -45 1 -45 -1 -1 -19 -3 -40 -6 -76 -11 -144 -53 -201
-124 -10 -12 -19 -28 -20 -34 -1 -6 -8 -22 -15 -35 -11 -19 -11 -22 1 -15 11
6 11 5 -1 -9 -7 -9 -11 -17 -9 -17 3 0 2 -20 -2 -45 -4 -29 -3 -46 4 -49 6 -3
7 -5 1 -5 -6 -1 -9 -20 -7 -46 l4 -45 -86 0 c-157 0 -199 -40 -202 -194 -2
-110 -1 -106 -16 -106 -19 0 -128 -74 -128 -87 0 -7 -3 -13 -7 -13 -17 0 -74
-100 -99 -175 -22 -64 -28 -101 -30 -186 -5 -231 79 -407 234 -489 47 -25 48
-26 47 -75 0 -28 -4 -53 -10 -57 -6 -5 -6 -8 2 -8 7 0 11 -12 9 -27 -1 -16 5
-44 13 -63 29 -65 65 -82 181 -84 l85 -2 0 -124 c0 -72 4 -128 10 -132 7 -5 7
-8 0 -8 -6 0 -10 -28 -10 -65 0 -37 4 -65 10 -65 7 0 7 -3 0 -8 -5 -4 -10 -20
-10 -37 0 -16 5 -33 10 -37 7 -5 7 -8 0 -8 -5 0 -10 -16 -10 -35 0 -19 5 -35
10 -35 7 0 7 -3 0 -8 -5 -4 -10 -20 -10 -37 0 -16 5 -33 10 -37 7 -5 7 -8 0
-8 -5 0 -10 -16 -10 -35 0 -19 5 -35 10 -35 7 0 7 -3 0 -8 -5 -4 -10 -20 -10
-37 0 -16 5 -33 10 -37 7 -5 7 -8 0 -8 -5 0 -10 -16 -10 -35 0 -19 5 -35 10
-35 7 0 7 -3 0 -8 -5 -4 -10 -20 -10 -37 0 -16 5 -33 10 -37 7 -5 7 -8 0 -8
-6 0 -10 -48 -10 -125 0 -77 4 -125 10 -125 7 0 7 -3 0 -8 -5 -4 -10 -50 -10
-102 l0 -95 -90 -2 c-49 -2 -100 -5 -112 -8 -13 -3 -24 -4 -25 -3 -2 2 -21 -8
-43 -21 -47 -29 -115 -98 -115 -118 0 -7 -4 -13 -8 -13 -5 0 -9 -6 -10 -12 -1
-21 -7 -42 -13 -53 -4 -5 -5 -95 -4 -200 1 -148 5 -196 17 -217 8 -15 18 -25
21 -21 4 3 7 -1 7 -10 0 -10 12 -20 28 -24 15 -5 1073 -8 2352 -8 2309 0 2325
0 2352 20 15 11 28 26 28 33 0 6 4 12 8 12 4 0 9 12 11 27 5 40 4 385 -1 403
-28 93 -102 170 -188 198 -19 7 -79 12 -133 13 l-98 1 3 84 c2 51 -1 84 -7 84
-7 0 -7 3 0 8 6 4 10 56 10 120 0 68 -4 112 -10 112 -7 0 -7 3 0 8 6 4 10 39
10 77 0 39 -4 73 -10 77 -7 5 -7 8 0 8 6 0 10 45 10 115 0 70 -4 115 -10 115
-7 0 -7 3 0 8 11 8 14 232 3 232 -3 0 -4 8 -2 18 9 38 9 142 -1 142 -7 0 -7 3
0 8 6 4 10 52 10 107 l0 100 93 1 c65 0 96 4 101 13 5 7 12 11 16 9 4 -1 21
14 38 34 28 36 30 42 31 135 l1 98 40 22 c22 12 47 25 55 29 19 10 60 55 60
66 0 5 5 6 10 3 6 -3 10 -2 10 4 0 6 11 27 25 47 14 20 22 40 19 45 -3 5 -1 9
5 9 11 0 36 74 50 150 5 30 8 100 7 155 -3 82 -9 116 -36 188 -17 48 -36 87
-41 87 -5 0 -9 6 -9 14 0 7 -14 27 -30 45 -17 17 -27 31 -23 31 5 0 -23 20
-61 45 -38 25 -71 43 -75 41 -3 -2 -6 37 -6 87 1 70 -3 101 -18 129 -29 59
-58 72 -170 76 l-97 4 1 67 c0 36 0 68 -1 71 -1 3 -3 21 -4 40 -1 19 -8 49
-16 65 -7 17 -13 33 -12 38 1 4 -2 7 -8 7 -5 0 -10 6 -10 13 0 13 -53 67 -66
67 -3 0 -12 7 -20 15 -16 16 -99 42 -141 44 -9 1 -12 16 -9 48 6 76 -44 233
-74 233 -6 0 -10 7 -10 14 0 16 -60 66 -78 66 -7 0 -12 4 -12 9 0 7 -50 33
-70 37 -3 0 -21 4 -40 7 -19 4 -54 9 -76 10 -32 2 -49 11 -75 38 -19 19 -56
50 -84 69 -27 19 -55 40 -62 46 -22 21 -237 122 -314 148 -142 48 -276 77
-509 111 -40 6 -476 15 -481 11z"/>
</g>
</svg>
